<svg xmlns="http://www.w3.org/2000/svg" xmlns:xlink="http://www.w3.org/1999/xlink" xmlns:inkscape="http://www.inkscape.org/namespaces/inkscape" version="1.1" width="391.9092" height="134.0262" viewBox="0 0 391.9092 134.0262">
<g inkscape:groupmode="layer" inkscape:label="Layer 1">
<path transform="matrix(1,0,0,-1,1,133.0262)" d="M116.742 114.4363C117.2752 114.6322 117.807 114.8306 118.338 115.026 120.4877 115.8163 122.6265 116.5473 124.8469 117.1196 130.0436 118.4581 135.7067 119.6065 141.0999 119.5313 142.704 119.5092 144.2701 119.3695 145.8564 119.1393 146.9503 118.9806 148.0473 118.7728 149.1452 118.654 150.6572 118.4905 151.9228 118.5843 153.4028 118.9528 167.4884 122.4621 181.2747 126.1372 195.6351 128.4763 200.7108 129.3029 205.8727 129.7519 210.9776 130.3903 219.8837 131.504 232.1946 133.9597 240.3386 129.2247 244.4783 126.8181 246.9521 123.0355 248.3765 118.6733 251.8237 118.5052 255.4254 117.8467 257.9862 115.4974 259.4942 114.114 260.3965 112.3917 260.9107 110.5262L271.9964 114.9644C272.0319 114.9786 272.0616 114.99 272.0974 115.0027 282.1629 118.6492 291.6592 119.179 301.8818 115.996 304.9166 115.0512 307.7592 113.8133 310.7356 112.7565 311.7892 112.3829 313.9132 111.6456 315.0414 111.9702 315.2205 112.0215 315.3798 112.1012 315.5332 112.2072 316.2339 112.6936 316.8709 113.2061 317.5461 113.7203 318.6677 114.5752 319.8626 115.2244 321.1166 115.8636 328.1244 119.4375 334.9414 121.5791 342.9105 121.5791 358.833 121.5791 366.2972 119.9364 377.7891 108.5236 387.6094 98.7704 389.9092 88.0291 389.9092 74.5809 389.9092 72.1324 389.7065 69.6861 389.3128 67.2698 387.3821 55.4315 380.9339 44.6196 371.9066 36.8025 362.234 28.4261 350.0158 23.7781 337.2038 23.7781 333.3396 23.7781 329.3816 24.0358 325.6191 24.9647 323.0416 25.6011 320.802 26.5241 318.4095 27.6401 316.7306 28.4236 315.0978 29.19 313.3349 29.7782 312.8766 29.9316 312.4383 30.0016 311.9573 29.9373 310.9728 29.8054 309.7732 29.1158 308.9254 28.6268 307.0491 27.5445 305.2636 26.4351 303.3113 25.473 296.314 22.0255 288.8348 20.9245 281.088 20.9245 275.5437 20.9245 270.2769 21.6496 265.1292 23.7594 263.6232 24.3765 262.2002 25.0957 260.7341 25.7922 259.9047 26.1865 258.9491 26.6329 258.0409 26.7996 256.8651 27.0153 255.7891 26.6791 254.723 26.1927 246.6264 22.4991 232.3757 21.6439 226.6393 29.6164 226.4494 29.2878 226.2518 28.9602 226.0148 28.6339 225.1193 27.4014 224.0048 26.4634 222.6912 25.6983 218.3879 23.1919 211.3126 22.2372 206.4515 21.693 206.3679 21.6836 206.297 21.6785 206.2134 21.6751L179.1754 20.6481C178.9795 20.6408 178.8123 20.6487 178.6184 20.6751 170.3877 21.784 162.468 22.0068 154.2526 20.7439 151.8046 20.3681 149.3861 19.8544 146.9438 19.4675 144.7523 19.1208 142.5609 18.9128 140.3541 19.2643 136.9162 19.8128 134.1833 21.6094 131.6874 23.9556 130.8478 24.745 130.038 25.5929 129.3684 26.5343 129.0331 27.0054 128.7848 27.4723 128.4812 27.9507 128.3397 28.1733 127.878 28.4992 127.3518 28.8221 125.8223 27.2265 125.3993 25.4055 124.3491 23.1423 121.5675 17.1496 116.32 15.3941 110.1291 14.5137 107.9277 14.2007 105.6773 14.2384 103.4597 14.2957 101.0906 14.3569 97.6711 14.5658 95.4264 13.7925 93.9243 13.2749 92.5693 12.5952 91.1143 11.9883 88.1657 10.7595 85.485 10.4621 82.3039 10.4621 79.2848 10.4621 76.2233 10.2988 73.2353 10.823 69.5024 11.4778 66.4892 13.1142 63.6797 15.6212 62.8957 12.2859 61.7187 8.7043 60.4346 6.88 57.0844 2.1203 53.0257 0 47.1124 0 34.5583 0 17.3806 3.9572 16.323 19.2237 16.1357 21.9254 16.024 24.6509 15.7958 27.3467 15.7564 27.8121 15.6328 29.3122 15.4208 29.829 14.8541 30.1734 12.763 30.7834 12.2029 30.9719 6.8692 32.7662 1.8884 36.1057 .4124 41.8484-.826 46.6662 .8804 51.6512 3.4747 55.7099 6.2252 60.012 10.1767 63.752 14.3558 66.7517 14.2829 69.2529 14.0553 71.7477 13.7475 74.2311 12.6269 83.2788 10.5761 92.0239 10.5761 101.2122 10.5761 115.5674 41.1956 119.677 51.8681 119.677 58.5797 119.677 62.3426 116.0881 64.1957 110.9996 64.6988 112.665 65.2425 114.2566 65.9494 115.8834 66.3982 116.9164 66.7769 118.0483 67.282 119.0432 67.8821 120.2244 68.7263 121.2154 69.5996 122.201 71.2372 124.0478 72.8768 125.7216 75.077 126.8957 75.6428 127.1976 76.7673 127.4505 77.3989 127.6149 78.819 127.9848 80.248 128.3267 81.6803 128.6461 85.9779 129.6045 90.3694 130.3835 94.7511 130.8231 102.06 131.557 115.5223 131.9899 117.5992 122.6038 118.1392 120.1635 117.3906 117.2543 116.742 114.4363" fill="#1a1a18" fill-rule="evenodd"/>
<path transform="matrix(1,0,0,-1,1,133.0262)" d="M112.7398 109.7722C112.8249 113.6021 115.0129 119.2649 114.4293 121.9022 111.7474 134.0206 76.6219 124.0398 76.6054 124.0308 74.8179 123.0772 73.4564 121.6565 72.0292 120.0467 69.8601 117.6001 70.2422 117.6143 68.9272 114.5891 65.9143 107.6579 67.4467 105.4318 62.3305 104.0658 61.7434 111.1212 59.1273 116.4302 51.8681 116.4302 39.6584 116.4302 13.8231 111.6641 13.8231 101.2122 13.8231 88.814 17.6278 77.241 17.6278 65.0699 2.5194 54.9527-3.3429 39.6278 13.2384 34.0492 19.5761 31.917 18.6177 33.0758 19.5622 19.4482 20.4579 6.518 35.7982 3.2468 47.1124 3.2468 52.5801 3.2468 55.4202 5.3963 57.7797 8.7489 59.3586 10.9919 61.0997 17.9592 61.3791 21.3182 64.0817 20.5965 63.3283 20.3034 65.7743 18.1043 71.3282 13.1102 75.9095 13.7092 82.3039 13.7092 88.9875 13.7092 89.7735 15.279 94.3685 16.8625 98.6567 18.3402 104.7339 17.026 109.6719 17.7282 125.1768 19.9327 119.1169 27.4487 127.0063 32.7317 132.9134 29.6059 129.9152 30.0784 133.9115 26.3211 144.1689 16.6774 147.9436 28.0837 179.0518 23.8929L206.0901 24.9199C229.2403 27.5119 220.748 32.7441 227.8253 34.634 230.506 24.5945 245.9849 25.7757 253.3754 29.1467 261.7965 32.9879 262.5046 24.1716 281.0877 24.1716 304.7692 24.1716 307.0457 35.3004 314.3631 32.8584 321.3255 30.5345 323.6315 27.0249 337.2041 27.0249 365.0139 27.0249 386.6624 50.1792 386.6624 74.5809 386.6624 87.552 384.4814 97.3009 375.5007 106.2198 364.9904 116.6584 358.6164 118.3323 342.9108 118.3323 335.0639 118.3323 328.7228 116.098 322.5917 112.9711 319.3894 111.3384 319.7667 111.1935 317.3845 109.5398 310.4527 104.7288 298.9137 121.2636 273.2034 111.9501L258.2612 105.9678C258.084 113.9162 253.938 115.4792 245.8967 115.4792 241.9583 132.3845 226.8887 129.1079 211.3804 127.1682 205.6184 126.4479 200.7811 126.0249 196.1569 125.2715 180.8487 122.7779 168.3173 119.3221 154.1877 115.8024 146.1342 113.796 145.5829 119.1084 125.657 113.9751 120.4594 112.6363 116.8214 110.7235 112.7398 109.7722" fill="#ffed00" fill-rule="evenodd"/>
<path transform="matrix(1,0,0,-1,1,133.0262)" d="M72.8524 72.6191C73.4751 82.1684 75.1774 92.831 76.6539 102.1952 78.8136 115.89 77.6302 117.3274 92.7607 118.3691 94.0167 118.4553 99.2962 118.8706 100.2574 118.7289 103.4121 118.264 103.0113 118.0193 102.5252 115.3151 100.77 105.5509 94.7809 90.6866 93.4359 74.8672 98.4498 75.7857 98.5414 75.6334 100.5707 74.4559 101.4866 69.338 99.1318 68.4298 95.8124 66.8242 92.7904 65.3624 92.0061 65.8397 91.0865 61.0166 89.8078 54.3095 88.9279 29.8227 87.194 27.8943 83.4412 25.7049 75.6334 25.3383 70.5858 27.9907L71.6871 56.3539 50.038 49.8129C49.8359 41.8269 50.2447 22.5215 47.1124 16.484 27.4249 13.665 30.7244 25.5433 30.3364 46.1543 24.3187 45.6151 20.2827 44.4719 15.0242 47.251 14.0006 56.1294 24.7898 56.0112 29.9083 60.3142 31.1893 71.9799 28.7751 92.5036 27.0031 104.0672 31.4691 105.6515 46.7014 109.1361 50.9406 106.9024 53.6746 101.5226 50.7668 76.0697 50.8161 67.7537Z" fill="#1a1a1c" fill-rule="evenodd"/>
<path transform="matrix(1,0,0,-1,1,133.0262)" d="M150.9608 106.7457C168.8661 111.149 219.8985 124.4489 235.4315 117.6117 235.8754 109.074 225.2605 107.3974 217.5506 104.8635 188.1519 95.2027 195.4429 106.3392 189.1468 66.6074 183.2063 29.1172 188.8333 35.3982 165.5325 37.6829L175.5731 94.3988C170.2046 92.4718 160.1657 90.7404 153.6378 90.6854 151.2232 95.1868 150.8156 101.1937 150.9608 106.7457" fill="#1a1a1c" fill-rule="evenodd"/>
<path transform="matrix(1.14544,0,0,-1.14544,1,133.0262)" stroke-width="2.9999" stroke-linecap="butt" stroke-miterlimit="22.925585" stroke-linejoin="miter" fill="none" stroke="#ffffff" d="M279.3736 44.8101 276.7884 38.6059C283.2239 31.8455 293.1715 27.1349 306.2503 31.2338 316.7198 34.5152 323.5229 42.3077 327.9869 50.8147 337.4646 77.5831 325.8799 98.4869 301.015 96.0647 291.947 95.1814 277.3888 87.0809 279.3645 80.1986 282.6958 68.5947 283.9088 56.4225 279.3736 44.8101ZM63.6018 63.3983 44.3639 59.1506C44.3205 66.4106 46.8592 88.6317 44.4725 93.3284 40.7716 95.2784 27.4734 92.2365 23.5743 90.8532 25.1212 80.7579 27.229 62.8401 26.1108 52.6558 21.6422 48.8991 12.223 49.0022 13.1165 41.2515 17.7075 38.825 21.2309 39.8231 26.4847 40.2939 26.8234 22.2999 23.9428 11.9299 41.1301 14.3909 43.865 19.6617 43.5078 36.5159 43.6844 43.488L62.5844 49.1984 61.6232 24.4366C66.03 22.121 72.8464 22.4408 76.1227 24.3524 77.6364 26.0359 78.4043 47.4137 79.5206 53.2689 80.3237 57.4798 81.0082 57.0628 83.6467 58.339 86.5446 59.7407 88.6003 60.5339 87.8003 65.0018 86.0287 66.03 85.9487 66.1626 81.5717 65.361 82.7461 79.1714 87.9746 92.1484 89.5071 100.673 89.9317 103.0337 90.2815 103.2471 87.5273 103.6534 86.688 103.7769 82.0789 103.4144 80.9824 103.339 67.7733 102.4296 68.8062 101.1747 66.9209 89.2191 65.6317 81.0439 64.1455 71.735 63.6018 63.3983ZM82.6957 28.4876C101.0452 22.138 95.7404 33.6881 102.1243 42.3207L120.8296 45.841C123.1917 41.0647 122.0632 35.0637 125.3537 30.6116 128.2275 30.2511 128.1974 30.3015 130.97 30.9461 131.8944 31.161 132.6623 31.3413 133.5042 31.712 136.0216 32.8204 134.695 31.974 135.9609 33.4284L132.8516 51.8831C137.5849 53.2103 139.3381 53.886 138.9472 59.129L131.6494 59.3476 127.2861 92.8817C121.6772 94.2151 106.8851 93.4036 104.1327 89.293 102.5677 86.9562 97.8052 72.8493 96.5968 69.4899 93.9722 62.1927 82.876 34.8695 82.6957 28.4876ZM118.192 53.5198 104.4221 51.4015 114.4845 76.6902ZM131.7926 93.1915C131.6656 88.3449 132.0216 83.1005 134.1298 79.1705 139.8288 79.2184 148.5927 80.7301 153.2798 82.4125L144.5139 32.898C164.8562 30.9036 159.9435 25.42 165.1297 58.1499 170.6264 92.8366 164.2612 83.1144 189.9269 91.5486 196.6581 93.7604 205.9251 95.2243 205.5376 102.678 191.9769 108.6471 147.4243 97.0359 131.7926 93.1915ZM182.2501 34.2122C184.4742 36.195 185.2838 40.587 187.594 45.6911L205.6249 48.0821C206.0399 43.9404 206.8671 39.2627 208.8612 36.3569 225.7586 34.3962 217.0414 44.6326 214.77 62.7089L212.9128 83.3692C212.8674 84.2715 212.7994 86.3416 212.6404 87.1393 212.4193 88.249 212.9732 86.4221 212.2849 88.4908 211.4631 90.9595 212.0315 89.3786 211.3523 90.4754 207.3614 90.3093 202.2576 89.5048 198.2418 88.9421 193.0493 88.2147 191.2839 88.1963 189.3149 83.9273 186.3558 77.5117 183.812 70.9087 180.8654 64.0996 179.7188 61.4492 168.224 36.1658 169.9631 34.4183 171.7841 32.5888 179.9983 33.3683 182.2501 34.2122ZM203.4051 53.5198 189.6352 51.4015 199.698 76.6902ZM245.3777 94.612C204.3652 84.8443 211.4963 22.9431 251.9813 29.6535 289.5123 35.8756 287.3259 104.6021 245.3777 94.612Z"/>
<path transform="matrix(1,0,0,-1,1,133.0262)" d="M320.0066 51.3275 317.0455 44.2208C324.417 36.4774 335.8114 31.0816 350.7922 35.7766 362.7845 39.5351 370.5769 48.4611 375.6903 58.2055 386.5465 88.867 373.2769 112.8112 344.7955 110.0367 334.4085 109.025 317.7329 99.7461 319.9961 91.8629 323.8118 78.5713 325.2013 64.6288 320.0066 51.3275ZM72.8524 72.6191 50.8164 67.7537C50.7668 76.0697 53.6746 101.5226 50.9406 106.9024 46.7014 109.1358 31.4691 105.6518 27.0031 104.0672 28.7748 92.5036 31.1893 71.9799 29.9083 60.3142 24.7898 56.0112 14.0006 56.1294 15.0242 47.2513 20.2827 44.4719 24.3187 45.6151 30.3367 46.1543 30.7247 25.5433 27.4252 13.665 47.1124 16.484 50.2449 22.5213 49.8359 41.8269 50.038 49.8129L71.6868 56.3539 70.5858 27.9907C75.6334 25.3383 83.4415 25.7046 87.1943 27.8943 88.9279 29.8227 89.8078 54.3098 91.0862 61.0166 92.0061 65.8397 92.7901 65.3621 95.8124 66.8239 99.1318 68.4295 101.4866 69.338 100.5704 74.4559 98.5411 75.6334 98.4495 75.7854 93.4359 74.8672 94.7809 90.6863 100.77 105.5506 102.5252 115.3151 103.0116 118.0193 103.4121 118.2637 100.2574 118.7291 99.2962 118.8706 94.0167 118.4553 92.7607 118.3689 77.6305 117.3274 78.8136 115.89 76.6539 102.1952 75.1774 92.8312 73.4751 82.1684 72.8524 72.6191ZM94.7231 32.631C115.7414 25.3579 109.6654 38.5877 116.9776 48.4758L138.4033 52.5084C141.1089 47.0373 139.8166 40.1635 143.5856 35.064 146.8772 34.651 146.8429 34.7085 150.0188 35.447 151.0775 35.693 151.9571 35.8997 152.9215 36.3243 155.8049 37.5939 154.2855 36.6245 155.7354 38.2904L152.174 59.4292C157.5955 60.9494 159.6039 61.7233 159.156 67.729L150.7969 67.9793 145.7989 106.3908C139.3741 107.9181 122.4309 106.9883 119.2779 102.28 117.4853 99.6032 112.0303 83.4446 110.6461 79.5969 107.6397 71.238 94.9297 39.941 94.7231 32.631ZM135.3821 61.3037 119.6096 58.8776 131.1355 87.8443ZM150.9608 106.7457C150.8153 101.194 151.2232 95.1868 153.6381 90.6854 160.166 90.7401 170.2043 92.4718 175.5731 94.3988L165.5325 37.6829C188.8333 35.3982 183.2063 29.1172 189.1468 66.6074 195.4429 106.3392 188.1519 95.2027 217.5506 104.8637 225.2605 107.3974 235.8754 109.074 235.4315 117.6117 219.8985 124.4492 168.8661 111.149 150.9608 106.7457ZM208.7572 39.1881C211.3047 41.4592 212.2319 46.4902 214.8783 52.3366L235.5316 55.0752C236.0069 50.3311 236.9543 44.9731 239.2387 41.6446 258.5934 39.3987 248.6086 51.1243 246.007 71.8294L243.8796 95.4947C243.8274 96.5282 243.7495 98.8994 243.5675 99.813 243.3141 101.0843 243.9485 98.9915 243.1602 101.3613 242.2191 104.1888 242.8699 102.378 242.0921 103.6344 237.5206 103.4442 231.6747 102.5226 227.0747 101.878 221.127 101.0449 219.1048 101.0239 216.8495 96.1339 213.4599 88.7851 210.5461 81.222 207.1709 73.4224 205.8576 70.3865 192.691 41.4258 194.6832 39.4243 196.7689 37.3286 206.1777 38.2215 208.7572 39.1881ZM232.9889 61.3037 217.2163 58.8776 228.7426 87.8443ZM281.0662 108.3725C234.0887 97.1844 242.257 26.28 288.6301 33.9664 331.6198 41.0933 329.1154 119.8157 281.0662 108.3725" fill="#1a1a18" fill-rule="evenodd"/>
<path transform="matrix(1,0,0,-1,1,133.0262)" d="M340.9829 62.7069C341.2834 61.5509 340.6226 60.2348 339.9636 59.5225 338.9627 58.4405 337.5524 58.1825 336.3437 58.4082 333.2733 58.9819 332.2023 63.6936 334.2455 63.8782 334.2994 63.3124 333.9142 63.1012 333.9519 62.13 334.0463 59.7141 336.7633 58.6074 337.7027 59.3178 336.5751 59.2637 335.4146 59.5843 334.7459 60.7558 334.3949 61.3706 334.2711 62.0376 334.3757 62.6465 334.6104 64.012 335.071 63.8229 335.4035 63.847 335.3519 63.5593 335.4038 63.7931 335.3108 63.5533 335.3097 63.5505 335.2082 63.3271 335.1929 63.2942 334.9551 62.7843 334.7952 62.4203 334.9545 61.7284 335.4687 59.4964 338.9474 58.9972 339.4233 62.2953ZM359.7891 74.9375C361.3561 75.5969 362.4406 75.1827 363.4064 74.2266 362.9577 75.0402 362.1631 75.4016 361.5015 75.5152 359.5465 75.8509 359.854 74.5262 359.2145 75.856 363.558 77.7591 366.5477 72.8867 364.0158 69.9058 362.5469 68.1763 360.4666 68.2869 359.1009 69.0426 357.7912 69.7669 356.0678 72.2563 357.9174 73.463 357.9795 72.239 357.55 71.4311 358.776 70.1855 359.3265 69.626 360.9026 68.9791 361.548 69.5038 360.6208 69.457 359.6553 69.7156 358.9821 70.4563 358.6201 70.8542 358.3755 71.3531 358.2751 71.9226 358.1447 72.6627 358.1802 73.0202 358.5353 73.2342 359.1839 72.7549 358.2873 71.3055 359.9541 70.4367 362.3083 69.2093 364.4634 72.2288 362.5804 74.0475 361.1571 75.4226 360.3969 73.8553 359.7891 74.9375ZM340.1223 69.0931 339.6402 69.6285 341.0351 69.601C341.5294 68.0136 341.4178 67.8203 340.4066 66.8296 339.7654 67.2806 339.1625 67.4493 338.4901 67.7659ZM337.2591 67.809C337.1505 68.2415 337.2437 68.9119 337.3994 69.222L338.2486 69.2337C338.5369 68.3977 338.2903 67.9504 337.2591 67.809ZM342.582 76.2735C343.1458 77.0006 343.6492 78.0642 344.3961 78.9035L344.7833 78.404C343.6688 77.4272 343.5435 76.5706 343.1469 75.8109 342.7277 76.0286 342.8853 75.8684 342.582 76.2735ZM350.8985 82.5639C351.4666 82.2801 352.4068 82.1024 353.1212 81.9102 353.4786 81.8138 353.8738 81.7217 354.2732 81.6111 354.6641 81.5029 354.8993 81.3626 355.2313 81.2358 354.6278 81.123 354.2204 81.3858 353.6756 80.9215 353.4004 80.6871 353.0565 80.0325 352.7467 79.681L352.5701 79.7689C352.5477 79.7822 352.51 79.8021 352.4856 79.8174 352.0551 80.0844 352.0193 80.2956 351.5199 80.356 350.922 80.428 347.6044 79.7162 346.9867 79.5543 346.4246 80.1451 346.2763 80.316 345.8324 81.0981 345.2162 82.1829 345.3471 81.8357 345.4659 82.7286 345.9974 82.677 346.498 82.3578 347.1463 82.6534 348.0126 83.0489 347.8181 83.4446 347.8045 84.1473 347.7818 85.3308 348.063 86.7172 346.6913 87.321 345.6893 87.7618 344.3196 87.9582 343.2285 86.764 341.8146 85.216 343.2818 84.1034 343.5593 83.7876 342.2426 82.2322 342.8141 84.8452 341.0328 81.879 339.2291 78.8751 337.8064 76.5482 337.9025 73.0672 337.9127 72.7007 337.9584 72.9811 337.8654 72.7033 336.2063 72.5088 337.0657 74.6527 334.0891 73.3793 332.5484 72.7203 331.1351 71.9994 329.8479 71.115 330.6634 69.7402 335.6833 70.1725 336.7585 69.6844L336.5722 67.8861C336.0946 67.7237 335.6946 67.6857 335.2022 67.5034 334.7186 67.324 334.3014 66.9977 333.9448 66.8744 333.1857 66.6116 332.5099 67.3299 331.7148 66.8446 331.6584 66.3437 331.8236 65.8015 331.922 65.2969 332.2176 63.7792 331.0977 63.5403 331.6411 61.005 332.8506 55.3623 341.1119 54.9884 342.6304 60.893 343.2906 63.4606 341.8373 62.9354 343.5163 63.5825 344.0849 62.0306 343.7498 62.1006 343.9599 60.863 360.4113 68.0343 357.4091 66.0317 355.8192 69.1744 355.2165 70.3655 355.4654 70.7737 355.3761 71.714 355.9518 70.2298 355.8767 69.5089 357.1478 68.3223 358.0421 67.4872 358.9622 67.0663 359.9892 66.8718 362.6529 66.3673 364.8056 67.7262 366.0208 69.7813 366.9676 71.3823 367.0432 74.4157 365.0006 76.4201 363.4444 77.9474 361.2387 78.4134 358.7182 77.8541 359.223 78.6059 359.7517 78.7181 360.1205 79.662 359.7276 81.2546 356.9539 82.294 356.135 82.5928 355.2437 82.9176 352.5735 84.1045 351.5202 83.8638 351.3209 83.6065 351.2248 83.444 351.1015 83.2088 350.8815 82.7887 350.9269 82.9919 350.8985 82.5639" fill="#ffffff" fill-rule="evenodd"/>
<path transform="matrix(1,0,0,-1,1,133.0262)" d="M266.2404 55.9508C266.4539 55.8882 266.2336 56.3859 266.8161 55.6617 267.188 55.1993 266.9519 55.1999 266.9562 55.1307 266.8569 55.1438 266.7694 54.8702 266.3827 55.3433 265.8784 55.9607 266.237 55.8587 266.2404 55.9508ZM261.4921 64.9318C262.0397 64.5633 261.9519 64.4403 261.8127 63.8932 261.8121 63.8935 261.5777 63.6259 261.3824 64.3277 261.1967 64.9962 261.4184 64.7578 261.4921 64.9318ZM267.1013 54.8702C267.3057 54.8614 267.234 55.3011 267.7161 54.684 268.1524 54.1256 267.8159 54.0706 267.8148 54.0547 267.3122 54.2271 267.1231 54.2752 267.1013 54.8702ZM261.0397 66.2071C261.6435 65.8403 261.5647 65.7867 261.3404 65.1969 260.8722 65.8417 260.9101 65.4857 261.0397 66.2071ZM276.4806 58.4597C268.7125 56.1087 263.4355 64.6563 268.3551 70.3054 269.5093 71.6306 271.3944 72.7707 272.8414 72.235 274.2205 71.7242 275.2359 69.3031 276.1308 67.6981 276.7603 66.5685 278.7843 63.2662 279.0539 62.2746 279.4779 60.715 278.5034 59.072 276.4806 58.4597ZM292.6763 66.1326C290.4299 64.741 283.7194 60.4273 281.4922 60.0829 281.2277 60.8672 281.6603 62.106 282.4586 62.7922 284.5939 64.6288 291.0084 66.5629 292.6763 66.1326ZM273.2831 74.5929C274.1482 75.8585 282.958 80.782 284.4465 80.8736 282.2298 78.4414 276.7711 71.9337 273.2831 74.5929ZM287.0731 82.283C293.6305 80.1618 296.5912 69.4908 295.1331 67.7588 293.9797 67.1536 289.5296 66.2922 288.4252 66.2757 287.6936 67.2596 286.8542 71.1519 284.2132 74.7825 283.591 75.638 282.6711 76.3682 282.2519 77.3184 282.6833 78.1608 286.058 81.6902 287.0731 82.283ZM297.0434 88.3998C297.9607 90.1882 300.797 88.6878 301.2786 87.1911 300.6113 86.5806 299.2683 85.7194 298.4907 85.9357 297.7206 86.1497 296.9116 87.5823 297.0434 88.3998ZM306.8144 77.2673C308.5373 75.1439 306.4657 71.8058 304.9999 73.4457 303.2714 75.3797 304.7049 76.7443 306.8144 77.2673ZM280.8822 82.6982 281.7037 81.7699C277.276 78.5288 260.5961 71.5096 260.0243 66.8639 259.5711 63.1809 264.0756 54.8385 267.6889 52.9557 271.9542 50.7328 286.3905 61.2298 291.9203 63.487 292.0156 62.7188 291.884 62.9362 292.2749 62.3027 292.9422 62.6638 292.8872 62.6369 293.0808 63.2846 293.3768 64.2753 292.8983 63.7875 293.5743 64.4488 297.5763 66.6839 304.3406 69.4327 307.1375 72.4068 308.9035 74.2847 308.9392 75.4432 308.3564 78.0571 307.4672 82.044 304.2403 87.535 300.7267 89.7171 297.1035 91.967 289.9091 86.3666 287.5493 85.0096 286.3774 84.3358 285.1787 83.6382 283.9986 82.9851 282.0869 81.9272 282.348 83.5251 280.8822 82.6982" fill="#ffffff" fill-rule="evenodd"/>
</g>
</svg>
